# xmcd
#
# Track frame offsets: 
#        150
#        11351
#        19989
#        26779
#        37769
#        49496
#        59719
#        70183
#        80480
#        92574
#        101273
#        111592
#
# Disc length: 1601 seconds
#
# Revision: 1
# Processed by: cddbd v1.5.2PL0 Copyright (c) Steve Scherf et al.
# Submitted via: ExactAudioCopy v0.95b4
#
DISCID=9b063f0c
DTITLE=Waylon Jennings - Backtraks
DYEAR=1999
DGENRE=Country
TTITLE0=Sally was a Good Old Girl
TTITLE1=Jole`Blon
TTITLE2=It`s So Easy
TTITLE3=Big Mamaou
TTITLE4=Cring
TTITLE5=Money(That`s What I Want)
TTITLE6=Burning Memories
TTITLE7=Lorena
TTITLE8=Don`t Think Twice
TTITLE9=Love Is Gonna Live Here Again
TTITLE10=White Lightning
TTITLE11=Abilene
EXTD=
EXTT0=
EXTT1=
EXTT2=
EXTT3=
EXTT4=
EXTT5=
EXTT6=
EXTT7=
EXTT8=
EXTT9=
EXTT10=
EXTT11=
PLAYORDER=
